<mxfile host="app.diagrams.net" modified="2023-11-05T21:24:05.176Z" agent="Mozilla/5.0 (Windows NT 10.0; Win64; x64) AppleWebKit/537.36 (KHTML, like Gecko) Chrome/119.0.0.0 Safari/537.36" etag="V-Sf3n6l-ycRnMFw5sJi" version="22.0.8" type="device">
  <diagram name="Page-1" id="oCm6gB10xAwL1SfgezjM">
    <mxGraphModel dx="1114" dy="678" grid="1" gridSize="10" guides="1" tooltips="1" connect="1" arrows="1" fold="1" page="1" pageScale="1" pageWidth="850" pageHeight="1100" math="0" shadow="0">
      <root>
        <mxCell id="0" />
        <mxCell id="1" parent="0" />
        <mxCell id="IYHGTw1EWI9kmomGwWpH-3" style="edgeStyle=orthogonalEdgeStyle;rounded=0;orthogonalLoop=1;jettySize=auto;html=1;entryX=0;entryY=0.5;entryDx=0;entryDy=0;" edge="1" parent="1" source="IYHGTw1EWI9kmomGwWpH-1" target="IYHGTw1EWI9kmomGwWpH-2">
          <mxGeometry relative="1" as="geometry" />
        </mxCell>
        <mxCell id="IYHGTw1EWI9kmomGwWpH-9" style="edgeStyle=orthogonalEdgeStyle;rounded=0;orthogonalLoop=1;jettySize=auto;html=1;entryX=0;entryY=0.5;entryDx=0;entryDy=0;" edge="1" parent="1" source="IYHGTw1EWI9kmomGwWpH-1" target="IYHGTw1EWI9kmomGwWpH-5">
          <mxGeometry relative="1" as="geometry" />
        </mxCell>
        <mxCell id="IYHGTw1EWI9kmomGwWpH-11" style="edgeStyle=orthogonalEdgeStyle;rounded=0;orthogonalLoop=1;jettySize=auto;html=1;entryX=0;entryY=0.5;entryDx=0;entryDy=0;" edge="1" parent="1" source="IYHGTw1EWI9kmomGwWpH-1" target="IYHGTw1EWI9kmomGwWpH-7">
          <mxGeometry relative="1" as="geometry" />
        </mxCell>
        <mxCell id="IYHGTw1EWI9kmomGwWpH-13" style="edgeStyle=orthogonalEdgeStyle;rounded=0;orthogonalLoop=1;jettySize=auto;html=1;entryX=0;entryY=0.5;entryDx=0;entryDy=0;" edge="1" parent="1" source="IYHGTw1EWI9kmomGwWpH-1" target="IYHGTw1EWI9kmomGwWpH-12">
          <mxGeometry relative="1" as="geometry" />
        </mxCell>
        <mxCell id="IYHGTw1EWI9kmomGwWpH-1" value="Employee" style="whiteSpace=wrap;html=1;align=center;" vertex="1" parent="1">
          <mxGeometry x="120" y="170" width="100" height="40" as="geometry" />
        </mxCell>
        <mxCell id="IYHGTw1EWI9kmomGwWpH-2" value="Number" style="ellipse;whiteSpace=wrap;html=1;align=center;" vertex="1" parent="1">
          <mxGeometry x="300" y="20" width="100" height="40" as="geometry" />
        </mxCell>
        <mxCell id="IYHGTw1EWI9kmomGwWpH-4" value="Name" style="ellipse;whiteSpace=wrap;html=1;align=center;" vertex="1" parent="1">
          <mxGeometry x="300" y="90" width="100" height="40" as="geometry" />
        </mxCell>
        <mxCell id="IYHGTw1EWI9kmomGwWpH-5" value="Email" style="ellipse;whiteSpace=wrap;html=1;align=center;" vertex="1" parent="1">
          <mxGeometry x="300" y="170" width="100" height="40" as="geometry" />
        </mxCell>
        <mxCell id="IYHGTw1EWI9kmomGwWpH-6" value="Salary" style="ellipse;whiteSpace=wrap;html=1;align=center;" vertex="1" parent="1">
          <mxGeometry x="300" y="250" width="100" height="40" as="geometry" />
        </mxCell>
        <mxCell id="IYHGTw1EWI9kmomGwWpH-7" value="ID" style="ellipse;whiteSpace=wrap;html=1;align=center;" vertex="1" parent="1">
          <mxGeometry x="300" y="320" width="100" height="40" as="geometry" />
        </mxCell>
        <mxCell id="IYHGTw1EWI9kmomGwWpH-8" style="edgeStyle=orthogonalEdgeStyle;rounded=0;orthogonalLoop=1;jettySize=auto;html=1;entryX=0;entryY=0.75;entryDx=0;entryDy=0;entryPerimeter=0;" edge="1" parent="1" source="IYHGTw1EWI9kmomGwWpH-1" target="IYHGTw1EWI9kmomGwWpH-4">
          <mxGeometry relative="1" as="geometry" />
        </mxCell>
        <mxCell id="IYHGTw1EWI9kmomGwWpH-10" style="edgeStyle=orthogonalEdgeStyle;rounded=0;orthogonalLoop=1;jettySize=auto;html=1;entryX=0.02;entryY=0.725;entryDx=0;entryDy=0;entryPerimeter=0;" edge="1" parent="1" source="IYHGTw1EWI9kmomGwWpH-1" target="IYHGTw1EWI9kmomGwWpH-6">
          <mxGeometry relative="1" as="geometry">
            <Array as="points">
              <mxPoint x="260" y="190" />
              <mxPoint x="260" y="279" />
            </Array>
          </mxGeometry>
        </mxCell>
        <mxCell id="IYHGTw1EWI9kmomGwWpH-16" style="edgeStyle=orthogonalEdgeStyle;rounded=0;orthogonalLoop=1;jettySize=auto;html=1;entryX=0;entryY=0.5;entryDx=0;entryDy=0;" edge="1" parent="1" source="IYHGTw1EWI9kmomGwWpH-12" target="IYHGTw1EWI9kmomGwWpH-14">
          <mxGeometry relative="1" as="geometry" />
        </mxCell>
        <mxCell id="IYHGTw1EWI9kmomGwWpH-17" style="edgeStyle=orthogonalEdgeStyle;rounded=0;orthogonalLoop=1;jettySize=auto;html=1;entryX=0;entryY=0.5;entryDx=0;entryDy=0;" edge="1" parent="1" source="IYHGTw1EWI9kmomGwWpH-12" target="IYHGTw1EWI9kmomGwWpH-15">
          <mxGeometry relative="1" as="geometry" />
        </mxCell>
        <mxCell id="IYHGTw1EWI9kmomGwWpH-12" value="Department" style="whiteSpace=wrap;html=1;align=center;" vertex="1" parent="1">
          <mxGeometry x="300" y="410" width="100" height="40" as="geometry" />
        </mxCell>
        <mxCell id="IYHGTw1EWI9kmomGwWpH-14" value="Number" style="ellipse;whiteSpace=wrap;html=1;align=center;" vertex="1" parent="1">
          <mxGeometry x="460" y="370" width="100" height="40" as="geometry" />
        </mxCell>
        <mxCell id="IYHGTw1EWI9kmomGwWpH-15" value="Name" style="ellipse;whiteSpace=wrap;html=1;align=center;" vertex="1" parent="1">
          <mxGeometry x="460" y="470" width="100" height="40" as="geometry" />
        </mxCell>
      </root>
    </mxGraphModel>
  </diagram>
</mxfile>
